<svg xmlns="http://www.w3.org/2000/svg" width="38.284" height="38" viewBox="0 0 38.284 38">
  <g id="business-and-trade_1_" data-name="business-and-trade (1)" transform="translate(0 -0.178)">
    <path id="Path_84" data-name="Path 84" d="M20.785,2.877,3.254.213A2.827,2.827,0,0,0,.989.835,2.852,2.852,0,0,0,0,2.973v33.61a1.6,1.6,0,0,0,1.6,1.6H6.779V29.8a2.784,2.784,0,0,1,2.792-2.792h3.988A2.784,2.784,0,0,1,16.35,29.8v8.375H23.13V5.637a2.793,2.793,0,0,0-2.345-2.76ZM8.773,23.423H6.381a1.2,1.2,0,1,1,0-2.393H8.773a1.2,1.2,0,1,1,0,2.393Zm0-4.785H6.381a1.2,1.2,0,1,1,0-2.393H8.773a1.2,1.2,0,0,1,0,2.393Zm0-4.785H6.381a1.2,1.2,0,1,1,0-2.393H8.773a1.2,1.2,0,0,1,0,2.393Zm0-4.785H6.381a1.2,1.2,0,0,1,0-2.393H8.773a1.2,1.2,0,0,1,0,2.393Zm7.976,14.356H14.356a1.2,1.2,0,0,1,0-2.393h2.393a1.2,1.2,0,1,1,0,2.393Zm0-4.785H14.356a1.2,1.2,0,0,1,0-2.393h2.393a1.2,1.2,0,1,1,0,2.393Zm0-4.785H14.356a1.2,1.2,0,0,1,0-2.393h2.393a1.2,1.2,0,0,1,0,2.393Zm0-4.785H14.356a1.2,1.2,0,0,1,0-2.393h2.393a1.2,1.2,0,0,1,0,2.393Z" fill="#1d1b3d"/>
    <path id="Path_85" data-name="Path 85" d="M26.858,11.729,15.5,9.351V32.719H26.267a2.8,2.8,0,0,0,2.792-2.792V14.457A2.778,2.778,0,0,0,26.858,11.729Zm-3.781,16.2H20.684a1.2,1.2,0,1,1,0-2.393h2.393a1.2,1.2,0,1,1,0,2.393Zm0-4.785H20.684a1.2,1.2,0,1,1,0-2.393h2.393a1.2,1.2,0,1,1,0,2.393Zm0-4.785H20.684a1.2,1.2,0,1,1,0-2.393h2.393a1.2,1.2,0,1,1,0,2.393Z" transform="translate(9.225 5.459)" fill="#fd8b25"/>
  </g>
</svg>
