<svg xmlns="http://www.w3.org/2000/svg" width="38" height="38" viewBox="0 0 38 38">
  <g id="call" transform="translate(0 0)">
    <g id="Group_14" data-name="Group 14" transform="translate(0 0)">
      <g id="Group_13" data-name="Group 13" transform="translate(0 0)">
        <path id="Path_78" data-name="Path 78" d="M37.262,30.216l-4.213-2.809-3.745-2.5a1.659,1.659,0,0,0-2.228.362l-2.317,2.979a1.65,1.65,0,0,1-2.107.437c-1.572-.875-3.432-1.7-7.534-5.806s-4.931-5.962-5.806-7.534a1.65,1.65,0,0,1,.437-2.107l2.979-2.317A1.659,1.659,0,0,0,13.089,8.7l-2.42-3.63L7.784.739a1.659,1.659,0,0,0-2.233-.5l-3.328,2A4.066,4.066,0,0,0,.377,4.622C-.533,7.94-.716,15.259,11.013,26.988S30.061,38.533,33.378,37.623a4.065,4.065,0,0,0,2.389-1.846l2-3.328A1.659,1.659,0,0,0,37.262,30.216Z" transform="translate(0 0)" fill="#1d1b3d"/>
        <path id="Path_79" data-name="Path 79" d="M283.137,63.1A11.15,11.15,0,0,1,294.275,74.24a.655.655,0,1,0,1.31,0,12.462,12.462,0,0,0-12.448-12.448.655.655,0,0,0,0,1.31Z" transform="translate(-261.517 -57.206)" fill="#fd8b25"/>
        <path id="Path_80" data-name="Path 80" d="M283.136,116.066a7.215,7.215,0,0,1,7.207,7.207.655.655,0,1,0,1.31,0,8.527,8.527,0,0,0-8.517-8.517.655.655,0,0,0,0,1.31Z" transform="translate(-261.516 -106.239)" fill="#fd8b25"/>
        <path id="Path_81" data-name="Path 81" d="M283.137,169.033a3.28,3.28,0,0,1,3.276,3.276.655.655,0,1,0,1.31,0,4.591,4.591,0,0,0-4.586-4.586.655.655,0,0,0,0,1.31Z" transform="translate(-261.517 -155.275)" fill="#fd8b25"/>
      </g>
    </g>
  </g>
</svg>
