<svg id="contract_2_" data-name="contract (2)" xmlns="http://www.w3.org/2000/svg" width="38" height="38" viewBox="0 0 38 38">
  <g id="Group_20" data-name="Group 20" transform="translate(22.208)">
    <g id="Group_19" data-name="Group 19">
      <path id="Path_102" data-name="Path 102" d="M305.923,6.488a3.319,3.319,0,0,0-.979-2.361L301.8.978A3.414,3.414,0,0,0,299.413,0h-.191V6.68h6.7V6.488Z" transform="translate(-299.222)" fill="#1d1b3d"/>
    </g>
  </g>
  <g id="Group_22" data-name="Group 22">
    <g id="Group_21" data-name="Group 21">
      <path id="Path_103" data-name="Path 103" d="M20.331,22.973a4.469,4.469,0,0,1,1.07-1.737l7.538-7.507V8.906H21.116a1.082,1.082,0,0,1-1.077-1.113V0H3.34A3.344,3.344,0,0,0,0,3.34V34.66A3.344,3.344,0,0,0,3.34,38H25.569a3.369,3.369,0,0,0,3.37-3.34V26.351l-1.223,1.194a4.427,4.427,0,0,1-1.731,1.068l-3.54,1.182-.539.029a2.783,2.783,0,0,1-2.638-3.667ZM5.566,20.039h11.1a1.113,1.113,0,1,1,0,2.227H5.566a1.113,1.113,0,0,1,0-2.227ZM4.453,16.7a1.113,1.113,0,0,1,1.113-1.113h11.1a1.113,1.113,0,1,1,0,2.227H5.566A1.113,1.113,0,0,1,4.453,16.7Zm0,8.906a1.113,1.113,0,0,1,1.113-1.113h11.1a1.113,1.113,0,1,1,0,2.227H5.566A1.113,1.113,0,0,1,4.453,25.605Zm16.663,5.566a1.113,1.113,0,1,1,0,2.227h-6.68a1.113,1.113,0,0,1,0-2.227ZM5.566,13.359a1.113,1.113,0,0,1,0-2.227h15.55a1.113,1.113,0,1,1,0,2.227Z" fill="#1d1b3d"/>
    </g>
  </g>
  <g id="Group_24" data-name="Group 24" transform="translate(21.35 23.958)">
    <g id="Group_23" data-name="Group 23">
      <path id="Path_104" data-name="Path 104" d="M288.661,322.808l-.969,2.906a.557.557,0,0,0,.7.7l2.9-.97Z" transform="translate(-287.663 -322.808)" fill="#fd8b25"/>
    </g>
  </g>
  <g id="Group_26" data-name="Group 26" transform="translate(23.662 14.792)">
    <g id="Group_25" data-name="Group 25">
      <path id="Path_105" data-name="Path 105" d="M326.152,199.307l-7.332,7.332,3.162,3.162,7.332-7.332Z" transform="translate(-318.82 -199.307)" fill="#fd8b25"/>
    </g>
  </g>
  <g id="Group_28" data-name="Group 28" transform="translate(32.569 10.981)">
    <g id="Group_27" data-name="Group 27">
      <path id="Path_106" data-name="Path 106" d="M443.6,148.568a2.325,2.325,0,0,0-3.159,0l-1.618,1.618,3.162,3.162,1.618-1.618A2.241,2.241,0,0,0,443.6,148.568Z" transform="translate(-438.819 -147.949)" fill="#fd8b25"/>
    </g>
  </g>
  <g id="Group_31" data-name="Group 31" transform="translate(37.348 14.74)">
    <g id="Group_30" data-name="Group 30">
      <g id="Group_29" data-name="Group 29">
        <path id="Path_107" data-name="Path 107" d="M503.215,198.815h0l.006-.006Z" transform="translate(-503.215 -198.793)"/>
        <path id="Path_108" data-name="Path 108" d="M503.3,198.685l.01-.01Z" transform="translate(-503.296 -198.67)"/>
        <path id="Path_109" data-name="Path 109" d="M503.436,198.607Z" transform="translate(-503.42 -198.602)"/>
      </g>
    </g>
  </g>
</svg>
