<svg xmlns="http://www.w3.org/2000/svg" width="38.009" height="38" viewBox="0 0 38.009 38">
  <g id="entrepeneur" transform="translate(-1.993 -2)">
    <path id="Path_110" data-name="Path 110" d="M20.133,12.333v1.9H18.867a.633.633,0,0,0-.633.633V18.7l-4.25-1.267a.636.636,0,0,0-.817.608V29.433H10V30.7H37.866V29.433H34.7v-11.4a.636.636,0,0,0-.817-.608l-4.25,1.267V14.867A.633.633,0,0,0,29,14.233H27.733v-1.9A.633.633,0,0,0,27.1,11.7H24.566V6H23.3v5.7H20.767A.633.633,0,0,0,20.133,12.333Zm-1.9,17.1h-3.8V18.882l3.8,1.14Zm11.4-9.411,3.8-1.14V29.433h-3.8Zm-7.6,8.145H20.767V26.9h1.267Zm0-2.533H20.767V24.366h1.267Zm0-2.533H20.767V21.833h1.267Zm0-2.533H20.767V19.3h1.267Zm0-2.533H20.767V16.767h1.267Zm2.533,10.133H23.3V26.9h1.267Zm0-2.533H23.3V24.366h1.267Zm0-2.533H23.3V21.833h1.267Zm0-2.533H23.3V19.3h1.267Zm0-2.533H23.3V16.767h1.267ZM27.1,28.166H25.833V26.9H27.1Zm0-2.533H25.833V24.366H27.1Zm0-2.533H25.833V21.833H27.1Zm0-2.533H25.833V19.3H27.1Zm0-2.533H25.833V16.767H27.1Zm-5.7-5.067h5.067v1.267H21.4Z" transform="translate(-2.936 -1.467)" fill="#fd8b25"/>
    <path id="Path_111" data-name="Path 111" d="M19,31h1.267v1.267H19Z" transform="translate(-6.236 -10.634)" fill="#fd8b25"/>
    <path id="Path_112" data-name="Path 112" d="M19,35h1.267v1.267H19Z" transform="translate(-6.236 -12.1)" fill="#fd8b25"/>
    <path id="Path_113" data-name="Path 113" d="M19,39h1.267v1.267H19Z" transform="translate(-6.236 -13.567)" fill="#fd8b25"/>
    <path id="Path_114" data-name="Path 114" d="M43,31h1.267v1.267H43Z" transform="translate(-15.036 -10.634)" fill="#fd8b25"/>
    <path id="Path_115" data-name="Path 115" d="M43,35h1.267v1.267H43Z" transform="translate(-15.036 -12.1)" fill="#fd8b25"/>
    <path id="Path_116" data-name="Path 116" d="M43,39h1.267v1.267H43Z" transform="translate(-15.036 -13.567)" fill="#fd8b25"/>
    <circle id="Ellipse_2" data-name="Ellipse 2" cx="1.9" cy="1.9" r="1.9" transform="translate(5.164 3.9)" fill="#1d1b3d"/>
    <path id="Path_117" data-name="Path 117" d="M51.246,2H42.38a.633.633,0,0,0-.633.633v3.8H37.313a.633.633,0,0,0-.38.127L34.4,8.46l.76,1.013L37.522,7.7h4.224v3.8a.633.633,0,0,0,.633.633h8.867a.633.633,0,0,0,.633-.633V2.633A.633.633,0,0,0,51.246,2Zm-.633,8.867H49.346v-.633a2.533,2.533,0,0,0-5.067,0v.633H43.013v-7.6h7.6Z" transform="translate(-11.883 0)" fill="#1d1b3d"/>
    <circle id="Ellipse_3" data-name="Ellipse 3" cx="1.9" cy="1.9" r="1.9" transform="translate(33.03 3.9)" fill="#1d1b3d"/>
    <circle id="Ellipse_4" data-name="Ellipse 4" cx="1.9" cy="1.9" r="1.9" transform="translate(5.164 31.766)" fill="#1d1b3d"/>
    <path id="Path_118" data-name="Path 118" d="M7.064,12.133A5.067,5.067,0,0,0,12.086,7.7h4.269l2.362,1.773.76-1.013-2.533-1.9a.633.633,0,0,0-.38-.127H12.086a5.067,5.067,0,1,0-5.022,5.7Zm0-8.867A3.8,3.8,0,0,1,9.6,9.916a2.533,2.533,0,0,0-5,0,3.8,3.8,0,0,1,2.47-6.65Z" transform="translate(0 0)" fill="#1d1b3d"/>
    <circle id="Ellipse_5" data-name="Ellipse 5" cx="1.9" cy="1.9" r="1.9" transform="translate(33.03 31.766)" fill="#1d1b3d"/>
    <path id="Path_119" data-name="Path 119" d="M2.633,55.968H11.5a.633.633,0,0,0,.633-.633v-3.8h4.433a.633.633,0,0,0,.564-.348l2.533-5.067-1.127-.57-2.362,4.718H12.133v-3.8a.633.633,0,0,0-.633-.633H2.633A.633.633,0,0,0,2,46.468v8.867A.633.633,0,0,0,2.633,55.968ZM3.267,47.1h7.6v7.6H9.6v-.633a2.533,2.533,0,0,0-5.067,0V54.7H3.267Z" transform="translate(-0.003 -15.969)" fill="#1d1b3d"/>
    <path id="Path_120" data-name="Path 120" d="M56,43h1.267v1.267H56Z" transform="translate(-19.803 -15.034)" fill="#fd8b25"/>
    <path id="Path_121" data-name="Path 121" d="M6,43H7.267v1.267H6Z" transform="translate(-1.469 -15.034)" fill="#fd8b25"/>
    <path id="Path_122" data-name="Path 122" d="M2,43H3.267v1.267H2Z" transform="translate(-0.003 -15.034)" fill="#fd8b25"/>
    <path id="Path_123" data-name="Path 123" d="M60,43h1.267v1.267H60Z" transform="translate(-21.27 -15.034)" fill="#fd8b25"/>
    <path id="Path_124" data-name="Path 124" d="M31,2h1.267V3.267H31Z" transform="translate(-10.636 0)" fill="#fd8b25"/>
    <path id="Path_125" data-name="Path 125" d="M46.707,45.835a5.067,5.067,0,0,0-5.022,4.433H37.6L35.237,45.55l-1.127.57,2.533,5.067a.633.633,0,0,0,.564.348h4.478a5.067,5.067,0,1,0,5.022-5.7Zm2.533,7.917a2.533,2.533,0,0,0-5,0,3.8,3.8,0,1,1,5,0Z" transform="translate(-11.777 -15.969)" fill="#1d1b3d"/>
  </g>
</svg>
