<svg id="justice" xmlns="http://www.w3.org/2000/svg" width="38" height="38" viewBox="0 0 38 38">
  <path id="Path_90" data-name="Path 90" d="M0,18.332a5.566,5.566,0,1,0,11.133,0,1.113,1.113,0,0,0-.1-.467L7.3,9.776a13,13,0,0,0,5.047-1.343l.124-.062A14.575,14.575,0,0,1,16.773,7V25.754h4.453V7a14.579,14.579,0,0,1,4.306,1.37l.124.062A13,13,0,0,0,30.7,9.776l-3.734,8.09a1.113,1.113,0,0,0-.1.467,5.566,5.566,0,1,0,11.133,0,1.113,1.113,0,0,0-.1-.467L34,9.416a8.672,8.672,0,0,0,3.6-2.172A1.113,1.113,0,0,0,36.025,5.67a6.446,6.446,0,0,1-4.588,1.9,10.753,10.753,0,0,1-4.785-1.13l-.124-.062a16.805,16.805,0,0,0-5.144-1.607,1.11,1.11,0,0,0-.158-.011V2.227a2.227,2.227,0,0,0-4.453,0V4.761a1.121,1.121,0,0,0-.158.011,16.8,16.8,0,0,0-5.144,1.607l-.124.062A10.754,10.754,0,0,1,6.563,7.57a6.446,6.446,0,0,1-4.588-1.9A1.113,1.113,0,0,0,.4,7.244,8.672,8.672,0,0,0,4,9.416L.1,17.865a1.113,1.113,0,0,0-.1.467Zm29.72-1.113,2.713-5.878,2.713,5.878ZM5.566,11.34,8.28,17.219H2.853Z" fill="#fd8b25"/>
  <path id="Path_91" data-name="Path 91" d="M36.887,454.227H30.318A2.227,2.227,0,0,0,28.092,452H9.908a2.227,2.227,0,0,0-2.227,2.227H1.113a1.113,1.113,0,0,0,0,2.227H36.887a1.113,1.113,0,0,0,0-2.227Z" transform="translate(0 -418.453)" fill="#1d1b3d"/>
  <path id="Path_92" data-name="Path 92" d="M175,377h-9.277a2.227,2.227,0,0,0-2.227,2.227v1.113h13.73v-1.113A2.227,2.227,0,0,0,175,377Z" transform="translate(-151.365 -349.02)" fill="#1d1b3d"/>
</svg>
