<svg id="surface1" xmlns="http://www.w3.org/2000/svg" width="34.276" height="38" viewBox="0 0 34.276 38">
  <path id="Path_126" data-name="Path 126" d="M238.675,20.711h4.195l-6.421-6.754v4.52A2.234,2.234,0,0,0,238.675,20.711Zm0,0" transform="translate(-218.9 -12.921)" fill="#1d1b3d"/>
  <path id="Path_127" data-name="Path 127" d="M12.815,24.825H5.376a.685.685,0,1,1,0-1.37h7.893a12.161,12.161,0,0,1,1.738-3H5.376a.685.685,0,1,1,0-1.37H16.308a11.786,11.786,0,0,1,7.747-2.945c.282,0,.514.026.856.051V9.16H19.775a3.608,3.608,0,0,1-3.6-3.6V0H3.048A3.063,3.063,0,0,0,0,3.09V29.217a3.034,3.034,0,0,0,3.048,3.056H13.363a11.693,11.693,0,0,1-.548-7.448ZM5.376,14.81h8.672a.685.685,0,0,1,0,1.37H5.376a.685.685,0,0,1,0-1.37Zm0,0" fill="#1d1b3d"/>
  <path id="Path_128" data-name="Path 128" d="M196.39,236.336a10.23,10.23,0,1,0,10.23,10.23A10.24,10.24,0,0,0,196.39,236.336Zm-.017,9.494a3.733,3.733,0,0,1,.625,7.413v.993a.685.685,0,1,1-1.37,0v-1.018a3.744,3.744,0,0,1-2.988-3.656.685.685,0,0,1,1.37,0,2.363,2.363,0,1,0,2.363-2.363,3.731,3.731,0,0,1-.745-7.388v-.728a.685.685,0,1,1,1.37,0v.693a3.736,3.736,0,0,1,3.107,3.681.685.685,0,0,1-1.37,0,2.374,2.374,0,0,0-2.209-2.363.642.642,0,0,1-.223.034.775.775,0,0,1-.2-.026,2.37,2.37,0,0,0,.266,4.726Zm0,0" transform="translate(-172.343 -218.795)" fill="#fd8b25"/>
</svg>
