<svg xmlns="http://www.w3.org/2000/svg" width="29.779" height="38" viewBox="0 0 29.779 38">
  <g id="XMLID_227_" transform="translate(-49.8)">
    <path id="XMLID_348_" d="M355.152,297.43a3.064,3.064,0,0,1-1.686-.86l.033,11.595a1.931,1.931,0,0,0,1.931,1.926h.006a1.931,1.931,0,0,0,1.926-1.937l-.032-11.19A3.066,3.066,0,0,1,355.152,297.43Z" transform="translate(-278.601 -272.091)" fill="#fd8b25"/>
    <circle id="XMLID_1038_" cx="3.336" cy="3.336" r="3.336" transform="translate(50.784 0)" fill="#1d1b3d"/>
    <path id="XMLID_1039_" d="M62.433,102.407l-5.054-.593L54.074,98.53l3.135,1.644,1.156.136V98.881a2.253,2.253,0,0,0-2.253-2.253H52.093a2.253,2.253,0,0,0-2.253,2.253l-.04,25.834a1.931,1.931,0,0,0,1.926,1.937h.006a1.931,1.931,0,0,0,1.931-1.926l.04-14.279s0,0,0-.005h.833v14.279a1.931,1.931,0,1,0,3.863,0c0-17.179-.035-17.93-.035-17.93l-2.1-.246c-.648-.076-1.432-.061-1.894-.914L51.8,100.813l3.7,3.676a1.61,1.61,0,0,0,.947.457l5.606.658a1.609,1.609,0,0,0,.375-3.2Z" transform="translate(0 -88.652)" fill="#1d1b3d"/>
    <circle id="XMLID_1040_" cx="3.336" cy="3.336" r="3.336" transform="translate(71.105 0)" fill="#fd8b25"/>
    <path id="XMLID_1041_" d="M239.351,104.617l-1.906-5.381,1.139,1.694V98.881a2.253,2.253,0,0,0-2.253-2.253h-4.018a2.253,2.253,0,0,0-2.253,2.253v.573L224.9,102.4a3.217,3.217,0,0,1-.854,4.172c.178-.067-.234.158,6.013-3.413,0,0-.034,6.985-.035,21.559a1.931,1.931,0,0,0,1.931,1.932h0a1.931,1.931,0,0,0,1.931-1.931V111.579a3.07,3.07,0,0,1-.025-1.115l0-.022.928-5.776-.353-4.009-.031-.346,1.769,4.994-.866,5.392a1.609,1.609,0,1,0,3.178.51l.931-5.8A1.611,1.611,0,0,0,239.351,104.617Z" transform="translate(-159.865 -88.652)" fill="#fd8b25"/>
  </g>
</svg>
